<svg id="visual" viewBox="0 0 900 600" width="900" height="600" xmlns="http://www.w3.org/2000/svg" xmlns:xlink="http://www.w3.org/1999/xlink" version="1.1"><g stroke-width="1" stroke-linejoin="bevel"><path d="M436 315.1L551 326.9L435 263.4Z" fill="#8eaae4" stroke="#8eaae4"></path><path d="M551 326.9L564 286.9L435 263.4Z" fill="#ffffff" stroke="#ffffff"></path><path d="M436 315.1L511 361.6L551 326.9Z" fill="#a2b8e9" stroke="#a2b8e9"></path><path d="M564 286.9L475 193.4L435 263.4Z" fill="#c8d4f2" stroke="#c8d4f2"></path><path d="M560 375.6L594 323.1L551 326.9Z" fill="#a2b8e9" stroke="#a2b8e9"></path><path d="M551 326.9L594 323.1L564 286.9Z" fill="#a2b8e9" stroke="#a2b8e9"></path><path d="M511 361.6L560 375.6L551 326.9Z" fill="#b5c6ee" stroke="#b5c6ee"></path><path d="M564 286.9L523 183.1L475 193.4Z" fill="#edf0fb" stroke="#edf0fb"></path><path d="M581 175.7L523 183.1L564 286.9Z" fill="#a2b8e9" stroke="#a2b8e9"></path><path d="M663 186.1L581 175.7L564 286.9Z" fill="#edf0fb" stroke="#edf0fb"></path><path d="M481 440.6L503 433.9L511 361.6Z" fill="#789de0" stroke="#789de0"></path><path d="M511 361.6L503 433.9L560 375.6Z" fill="#4483d6" stroke="#4483d6"></path><path d="M318 376.6L421 412.9L436 315.1Z" fill="#ffffff" stroke="#ffffff"></path><path d="M436 315.1L421 412.9L511 361.6Z" fill="#a2b8e9" stroke="#a2b8e9"></path><path d="M421 412.9L481 440.6L511 361.6Z" fill="#8eaae4" stroke="#8eaae4"></path><path d="M663 186.1L597 161.7L581 175.7Z" fill="#c8d4f2" stroke="#c8d4f2"></path><path d="M581 175.7L589 137.4L523 183.1Z" fill="#1177d1" stroke="#1177d1"></path><path d="M398 53.7L361 190.4L475 193.4Z" fill="#789de0" stroke="#789de0"></path><path d="M398 53.7L475 193.4L523 183.1Z" fill="#edf0fb" stroke="#edf0fb"></path><path d="M475 193.4L361 190.4L435 263.4Z" fill="#789de0" stroke="#789de0"></path><path d="M435 263.4L318 376.6L436 315.1Z" fill="#edf0fb" stroke="#edf0fb"></path><path d="M597 161.7L589 137.4L581 175.7Z" fill="#b5c6ee" stroke="#b5c6ee"></path><path d="M560 375.6L683 344.1L594 323.1Z" fill="#789de0" stroke="#789de0"></path><path d="M594 323.1L663 186.1L564 286.9Z" fill="#789de0" stroke="#789de0"></path><path d="M597 161.7L663 186.1L589 137.4Z" fill="#c8d4f2" stroke="#c8d4f2"></path><path d="M747 402.9L683 344.1L560 375.6Z" fill="#6190db" stroke="#6190db"></path><path d="M683 344.1L663 186.1L594 323.1Z" fill="#4483d6" stroke="#4483d6"></path><path d="M361 190.4L318 376.6L435 263.4Z" fill="#4483d6" stroke="#4483d6"></path><path d="M421 412.9L404 505.3L481 440.6Z" fill="#4483d6" stroke="#4483d6"></path><path d="M311 95.7L312 188.4L361 190.4Z" fill="#b5c6ee" stroke="#b5c6ee"></path><path d="M361 190.4L312 188.4L318 376.6Z" fill="#c8d4f2" stroke="#c8d4f2"></path><path d="M318 376.6L404 505.3L421 412.9Z" fill="#789de0" stroke="#789de0"></path><path d="M481 440.6L478 560.3L503 433.9Z" fill="#dbe2f6" stroke="#dbe2f6"></path><path d="M642 600L747 402.9L560 375.6Z" fill="#ffffff" stroke="#ffffff"></path><path d="M683 344.1L734 311.1L663 186.1Z" fill="#789de0" stroke="#789de0"></path><path d="M486 0L398 53.7L523 183.1Z" fill="#b5c6ee" stroke="#b5c6ee"></path><path d="M238 215.1L257 376.9L318 376.6Z" fill="#8eaae4" stroke="#8eaae4"></path><path d="M318 376.6L244 481.3L404 505.3Z" fill="#4483d6" stroke="#4483d6"></path><path d="M398 53.7L311 95.7L361 190.4Z" fill="#b5c6ee" stroke="#b5c6ee"></path><path d="M312 188.4L238 215.1L318 376.6Z" fill="#dbe2f6" stroke="#dbe2f6"></path><path d="M311 95.7L238 215.1L312 188.4Z" fill="#edf0fb" stroke="#edf0fb"></path><path d="M404 505.3L478 560.3L481 440.6Z" fill="#a2b8e9" stroke="#a2b8e9"></path><path d="M683 344.1L767 350.9L734 311.1Z" fill="#8eaae4" stroke="#8eaae4"></path><path d="M642 600L560 375.6L503 433.9Z" fill="#ffffff" stroke="#ffffff"></path><path d="M747 402.9L767 350.9L683 344.1Z" fill="#ffffff" stroke="#ffffff"></path><path d="M797 150.4L661 58.7L663 186.1Z" fill="#c8d4f2" stroke="#c8d4f2"></path><path d="M663 186.1L661 58.7L589 137.4Z" fill="#dbe2f6" stroke="#dbe2f6"></path><path d="M589 137.4L486 0L523 183.1Z" fill="#4483d6" stroke="#4483d6"></path><path d="M797 150.4L663 186.1L812 175.4Z" fill="#ffffff" stroke="#ffffff"></path><path d="M404 505.3L441 566.3L478 560.3Z" fill="#c8d4f2" stroke="#c8d4f2"></path><path d="M315 600L441 566.3L404 505.3Z" fill="#c8d4f2" stroke="#c8d4f2"></path><path d="M661 58.7L486 0L589 137.4Z" fill="#789de0" stroke="#789de0"></path><path d="M398 53.7L305 17.7L311 95.7Z" fill="#1177d1" stroke="#1177d1"></path><path d="M238 215.1L217 375.6L257 376.9Z" fill="#b5c6ee" stroke="#b5c6ee"></path><path d="M257 376.9L244 481.3L318 376.6Z" fill="#1177d1" stroke="#1177d1"></path><path d="M486 0L424 0L398 53.7Z" fill="#1177d1" stroke="#1177d1"></path><path d="M464 600L505 600L478 560.3Z" fill="#6190db" stroke="#6190db"></path><path d="M478 560.3L642 600L503 433.9Z" fill="#4483d6" stroke="#4483d6"></path><path d="M315 600L464 600L441 566.3Z" fill="#a2b8e9" stroke="#a2b8e9"></path><path d="M441 566.3L464 600L478 560.3Z" fill="#edf0fb" stroke="#edf0fb"></path><path d="M424 0L371 0L398 53.7Z" fill="#b5c6ee" stroke="#b5c6ee"></path><path d="M217 375.6L244 481.3L257 376.9Z" fill="#ffffff" stroke="#ffffff"></path><path d="M747 402.9L801 399.6L767 350.9Z" fill="#dbe2f6" stroke="#dbe2f6"></path><path d="M812 175.4L663 186.1L734 311.1Z" fill="#1177d1" stroke="#1177d1"></path><path d="M793 479.3L801 399.6L747 402.9Z" fill="#1177d1" stroke="#1177d1"></path><path d="M812 175.4L734 311.1L900 247.4Z" fill="#789de0" stroke="#789de0"></path><path d="M371 0L305 17.7L398 53.7Z" fill="#4483d6" stroke="#4483d6"></path><path d="M137 179.7L138 236.1L238 215.1Z" fill="#1177d1" stroke="#1177d1"></path><path d="M900 247.4L734 311.1L767 350.9Z" fill="#789de0" stroke="#789de0"></path><path d="M767 0L682 0L661 58.7Z" fill="#c8d4f2" stroke="#c8d4f2"></path><path d="M661 58.7L682 0L486 0Z" fill="#c8d4f2" stroke="#c8d4f2"></path><path d="M505 600L642 600L478 560.3Z" fill="#c8d4f2" stroke="#c8d4f2"></path><path d="M675 600L793 479.3L747 402.9Z" fill="#8eaae4" stroke="#8eaae4"></path><path d="M505 600L661 607.3L642 600Z" fill="#b5c6ee" stroke="#b5c6ee"></path><path d="M642 600L675 600L747 402.9Z" fill="#dbe2f6" stroke="#dbe2f6"></path><path d="M464 600L661 607.3L505 600Z" fill="#edf0fb" stroke="#edf0fb"></path><path d="M661 607.3L675 600L642 600Z" fill="#4483d6" stroke="#4483d6"></path><path d="M244 481.3L315 600L404 505.3Z" fill="#b5c6ee" stroke="#b5c6ee"></path><path d="M464 600L315 600L661 607.3Z" fill="#edf0fb" stroke="#edf0fb"></path><path d="M238 215.1L139 336.1L217 375.6Z" fill="#edf0fb" stroke="#edf0fb"></path><path d="M217 375.6L121 414.9L244 481.3Z" fill="#dbe2f6" stroke="#dbe2f6"></path><path d="M244 481.3L277 600L315 600Z" fill="#ffffff" stroke="#ffffff"></path><path d="M138 236.1L139 336.1L238 215.1Z" fill="#1177d1" stroke="#1177d1"></path><path d="M137 179.7L238 215.1L151 119.4Z" fill="#789de0" stroke="#789de0"></path><path d="M151 119.4L238 215.1L311 95.7Z" fill="#edf0fb" stroke="#edf0fb"></path><path d="M69 341.9L125 388.6L139 336.1Z" fill="#1177d1" stroke="#1177d1"></path><path d="M224 600L277 600L244 481.3Z" fill="#b5c6ee" stroke="#b5c6ee"></path><path d="M315 600L277 600L661 607.3Z" fill="#edf0fb" stroke="#edf0fb"></path><path d="M241 0L151 119.4L311 95.7Z" fill="#1177d1" stroke="#1177d1"></path><path d="M69 341.9L139 336.1L138 236.1Z" fill="#dbe2f6" stroke="#dbe2f6"></path><path d="M139 336.1L125 388.6L217 375.6Z" fill="#a2b8e9" stroke="#a2b8e9"></path><path d="M371 0L241 0L305 17.7Z" fill="#c8d4f2" stroke="#c8d4f2"></path><path d="M305 17.7L241 0L311 95.7Z" fill="#6190db" stroke="#6190db"></path><path d="M828 71.7L767 0L661 58.7Z" fill="#b5c6ee" stroke="#b5c6ee"></path><path d="M828 71.7L661 58.7L797 150.4Z" fill="#edf0fb" stroke="#edf0fb"></path><path d="M900 186.1L828 71.7L812 175.4Z" fill="#1177d1" stroke="#1177d1"></path><path d="M812 175.4L828 71.7L797 150.4Z" fill="#a2b8e9" stroke="#a2b8e9"></path><path d="M69 341.9L121 414.9L125 388.6Z" fill="#6190db" stroke="#6190db"></path><path d="M125 388.6L121 414.9L217 375.6Z" fill="#b5c6ee" stroke="#b5c6ee"></path><path d="M793 479.3L876 415.6L801 399.6Z" fill="#789de0" stroke="#789de0"></path><path d="M900 346.9L900 247.4L767 350.9Z" fill="#ffffff" stroke="#ffffff"></path><path d="M900 468.6L876 415.6L793 479.3Z" fill="#6190db" stroke="#6190db"></path><path d="M900 346.9L767 350.9L801 399.6Z" fill="#edf0fb" stroke="#edf0fb"></path><path d="M876 415.6L900 346.9L801 399.6Z" fill="#6190db" stroke="#6190db"></path><path d="M815 600L793 479.3L675 600Z" fill="#6190db" stroke="#6190db"></path><path d="M815 600L830 528.3L793 479.3Z" fill="#789de0" stroke="#789de0"></path><path d="M177 597.3L224 600L244 481.3Z" fill="#4483d6" stroke="#4483d6"></path><path d="M277 600L224 600L661 607.3Z" fill="#789de0" stroke="#789de0"></path><path d="M900 247.4L900 186.1L812 175.4Z" fill="#6190db" stroke="#6190db"></path><path d="M0 255.1L69 341.9L138 236.1Z" fill="#6190db" stroke="#6190db"></path><path d="M121 414.9L177 597.3L244 481.3Z" fill="#dbe2f6" stroke="#dbe2f6"></path><path d="M60 190.4L138 236.1L137 179.7Z" fill="#b5c6ee" stroke="#b5c6ee"></path><path d="M830 528.3L900 468.6L793 479.3Z" fill="#edf0fb" stroke="#edf0fb"></path><path d="M876 415.6L900 468.6L900 346.9Z" fill="#6190db" stroke="#6190db"></path><path d="M114 600L177 597.3L121 414.9Z" fill="#a2b8e9" stroke="#a2b8e9"></path><path d="M661 607.3L815 600L675 600Z" fill="#4483d6" stroke="#4483d6"></path><path d="M830 528.3L900 600L900 468.6Z" fill="#dbe2f6" stroke="#dbe2f6"></path><path d="M241 0L156 0L151 119.4Z" fill="#4483d6" stroke="#4483d6"></path><path d="M61 176.7L60 190.4L137 179.7Z" fill="#a2b8e9" stroke="#a2b8e9"></path><path d="M61 176.7L137 179.7L151 119.4Z" fill="#b5c6ee" stroke="#b5c6ee"></path><path d="M0 89.7L61 176.7L151 119.4Z" fill="#4483d6" stroke="#4483d6"></path><path d="M828 71.7L887 0L767 0Z" fill="#a2b8e9" stroke="#a2b8e9"></path><path d="M900 0L887 0L828 71.7Z" fill="#ffffff" stroke="#ffffff"></path><path d="M31 470.6L114 600L121 414.9Z" fill="#789de0" stroke="#789de0"></path><path d="M177 597.3L114 600L224 600Z" fill="#789de0" stroke="#789de0"></path><path d="M224 600L114 600L661 607.3Z" fill="#c8d4f2" stroke="#c8d4f2"></path><path d="M900 186.1L900 0L828 71.7Z" fill="#dbe2f6" stroke="#dbe2f6"></path><path d="M900 0L900 -1.3L887 0Z" fill="#789de0" stroke="#789de0"></path><path d="M887 0L900 -1.3L767 0Z" fill="#789de0" stroke="#789de0"></path><path d="M767 0L900 -1.3L682 0Z" fill="#a2b8e9" stroke="#a2b8e9"></path><path d="M682 0L900 -1.3L486 0Z" fill="#a2b8e9" stroke="#a2b8e9"></path><path d="M486 0L900 -1.3L424 0Z" fill="#edf0fb" stroke="#edf0fb"></path><path d="M424 0L900 -1.3L371 0Z" fill="#4483d6" stroke="#4483d6"></path><path d="M371 0L900 -1.3L241 0Z" fill="#dbe2f6" stroke="#dbe2f6"></path><path d="M241 0L900 -1.3L156 0Z" fill="#dbe2f6" stroke="#dbe2f6"></path><path d="M0 148.4L60 190.4L61 176.7Z" fill="#dbe2f6" stroke="#dbe2f6"></path><path d="M0 148.4L0 255.1L60 190.4Z" fill="#1177d1" stroke="#1177d1"></path><path d="M60 190.4L0 255.1L138 236.1Z" fill="#dbe2f6" stroke="#dbe2f6"></path><path d="M0 400.9L31 470.6L121 414.9Z" fill="#edf0fb" stroke="#edf0fb"></path><path d="M0 400.9L121 414.9L69 341.9Z" fill="#edf0fb" stroke="#edf0fb"></path><path d="M900 -1.3L85 0L156 0Z" fill="#b5c6ee" stroke="#b5c6ee"></path><path d="M156 0L85 0L151 119.4Z" fill="#c8d4f2" stroke="#c8d4f2"></path><path d="M0 255.1L0 400.9L69 341.9Z" fill="#8eaae4" stroke="#8eaae4"></path><path d="M900 606.3L900 600L815 600Z" fill="#4483d6" stroke="#4483d6"></path><path d="M815 600L900 600L830 528.3Z" fill="#dbe2f6" stroke="#dbe2f6"></path><path d="M661 607.3L900 606.3L815 600Z" fill="#4483d6" stroke="#4483d6"></path><path d="M0 89.7L0 148.4L61 176.7Z" fill="#c8d4f2" stroke="#c8d4f2"></path><path d="M0 400.9L0 436.6L31 470.6Z" fill="#1177d1" stroke="#1177d1"></path><path d="M31 470.6L73 598.3L114 600Z" fill="#1177d1" stroke="#1177d1"></path><path d="M0 559.3L73 598.3L31 470.6Z" fill="#a2b8e9" stroke="#a2b8e9"></path><path d="M85 0L0 89.7L151 119.4Z" fill="#789de0" stroke="#789de0"></path><path d="M0 436.6L0 559.3L31 470.6Z" fill="#edf0fb" stroke="#edf0fb"></path><path d="M85 0L0 0L0 89.7Z" fill="#c8d4f2" stroke="#c8d4f2"></path><path d="M900 -1.3L0 0L85 0Z" fill="#1177d1" stroke="#1177d1"></path><path d="M0 559.3L0 600L73 598.3Z" fill="#4483d6" stroke="#4483d6"></path><path d="M73 598.3L0 600L114 600Z" fill="#4483d6" stroke="#4483d6"></path><path d="M114 600L0 600L661 607.3Z" fill="#dbe2f6" stroke="#dbe2f6"></path></g></svg>